<svg xmlns="http://www.w3.org/2000/svg" xmlns:xlink="http://www.w3.org/1999/xlink" version="1.1" x="0px" y="0px" viewBox="0 0 100 125" enable-background="new 0 0 100 100" xml:space="preserve"><g><path d="M94.9,12.5c-0.1-0.2-0.4-0.2-0.6-0.2c-0.3,0.1-7.2,2.9-10.7,5.8c-3.6,3-5.1,7.1-5.1,7.3c0,0,0,0.1,0,0.1   c-1,2.2-2.8,6.2-5.2,10.4c-0.1-1.6-0.4-3.6-1-5.4c-1.5-4.5-5.7-10.9-5.9-11.1c-0.1-0.2-0.4-0.3-0.6-0.2c-0.2,0.1-0.4,0.3-0.4,0.5   c0,0.3,0.1,8.4,1.7,13.1c1,3,2.8,5.4,4,6.7c-1.5,2.4-3,4.4-4.5,6.1c-2.3,2.6-4.2,5.1-5.9,7.3V37.6v-1.8c1-0.4,1.7-1.4,1.7-2.5   c0-1.1-0.7-2.1-1.7-2.6V8c0-1-0.8-1.9-1.9-1.9H46.7c-1,0-1.9,0.8-1.9,1.9v22.7c-1,0.4-1.7,1.4-1.7,2.6c0,1.1,0.7,2.1,1.7,2.5v1.8   v19.9l-4.9-20.6c0,0,0,0,0,0L39.4,35c0.6-0.7,0.8-1.6,0.6-2.4c-0.2-0.9-0.8-1.6-1.7-1.9L33.2,8.2c-0.2-1-1-1.7-1.9-1.5l-8.2,1.9   c-0.4,0.1-0.8,0.4-0.9,0.9c-0.2,0.4-0.2,0.9-0.1,1.3l5.2,22.4c-0.6,0.7-0.8,1.6-0.6,2.5c0.2,0.9,0.8,1.6,1.6,1.9l0.5,1.9l0,0   l5.5,23.8c-0.6,0.7-0.8,1.6-0.6,2.5c0.2,0.9,0.8,1.6,1.7,1.9l0.5,1.9c0,0,0,0,0,0l0,0.2C33,66,28.4,60,26.4,57.6   c-0.1-0.1-0.2-0.2-0.4-0.3c0,0,0,0,0,0c0,0,0,0,0,0c0,0,0,0,0,0c-0.3-0.2-0.6-0.3-0.9-0.4c-1.6-0.5-4.7-1.3-8.1-0.8   c-4.6,0.7-11.4,3.9-11.7,4C5.1,60.2,5,60.4,5,60.7c0,0.2,0.2,0.4,0.5,0.4c0.3,0,7.4,1,11.8,0.3c0.9-0.1,1.9-0.4,3-0.7   c-1.4,1.3-2.9,2.7-3.9,4c-2.6,3.4-3.7,7.8-3.8,8c0,0.2,0,0.4,0.2,0.5c0.1,0.1,0.4,0.2,0.5,0.1c0.2-0.1,4.1-1.6,6.8-5.1   c1.5-1.9,2.9-4.8,3.9-7.1c3.9,4.7,10.6,13.2,14,17.9l3.1,13.2c0.2,0.9,0.9,1.5,1.6,1.5c0.1,0,0.2,0,0.3,0c0,0,0,0,0.1,0l2.3-0.8   c0.3,0.4,0.8,0.6,1.4,0.6h12.1c1,0,1.9-0.8,1.9-1.9V68.6v-1.8c1-0.4,1.7-1.4,1.7-2.5c0-1.1-0.7-2.1-1.7-2.6v-1   c0.9-1.9,3.1-5.3,8-11.2c0.5-0.6,0.9-1.1,1.4-1.8c2.2,0.9,6.7,2.6,10,3c4.4,0.5,8.2-1.3,8.3-1.3c0.2-0.1,0.3-0.3,0.3-0.5   c0-0.2-0.1-0.4-0.3-0.5c-0.2-0.1-4.1-2.3-8.3-2.8c-2.7-0.3-6.5,0.1-8.9,0.4c5.3-7.6,8.9-16.7,10.2-20.4c0-0.1,0.1-0.3,0.1-0.4   c1.6-0.7,3.8-1.7,5.7-3.3c3.4-2.8,7.4-8.6,7.6-8.8C95,13,95,12.7,94.9,12.5z M68,32.5c-1.1-3.2-1.4-8.2-1.6-10.9   c1.4,2.2,3.7,6.2,4.7,9.3c0.8,2.4,1,4.9,1,6.7l-0.6,1C70.5,37.4,68.9,35.2,68,32.5z M44.1,33.3c0-0.8,0.5-1.5,1.3-1.7   c0.2-0.1,0.4-0.3,0.4-0.5V8c0-0.5,0.4-0.8,0.8-0.8h12.1c0.5,0,0.8,0.4,0.8,0.8v23.1c0,0.2,0.2,0.5,0.4,0.5c0.8,0.2,1.3,0.9,1.3,1.7   c0,0.7-0.4,1.3-1,1.6H45.1C44.5,34.6,44.1,34,44.1,33.3z M27.7,35.4c-0.1-0.6,0.1-1.2,0.5-1.7c0.1-0.1,0.2-0.3,0.2-0.5l-5.3-22.7   c-0.1-0.2,0-0.5,0-0.7c0-0.1,0.1-0.2,0.2-0.2l8.2-1.9c0.2,0,0.5,0.3,0.6,0.7l5.3,22.7c0,0.2,0.2,0.3,0.4,0.4   c0.6,0.2,1.1,0.7,1.2,1.3c0.1,0.6,0,1.1-0.4,1.6l-9.8,2.3C28.2,36.4,27.8,36,27.7,35.4z M34.7,65.5c-0.1-0.6,0.1-1.2,0.5-1.7   c0.1-0.1,0.2-0.3,0.2-0.5l-5.6-24.1c0,0,0,0,0,0c0,0,0,0,0,0l-0.4-1.7l9.1-2.1l0.4,1.7c0,0,0,0,0,0c0,0,0,0,0,0l5.8,24.6   c-1,0.4-1.6,1.4-1.6,2.5c0,0.3,0.1,0.6,0.2,0.9l-7.3,1.6C35.3,66.6,34.9,66.1,34.7,65.5z M17.1,60.4c-2.9,0.4-7.2,0.1-9.6-0.1   c2.3-1,6.6-2.7,9.7-3.1c3-0.4,5.7,0.2,7.3,0.7l-1.7,0.9C20.7,59.6,18.8,60.2,17.1,60.4z M19.3,67.6c-1.7,2.2-4,3.7-5.3,4.3   c0.5-1.5,1.5-4.3,3.2-6.5c1.5-2,4.1-4.2,6-5.8l0.3-0.2L23.4,60C22.4,62.3,20.9,65.6,19.3,67.6z M24.5,60l0.3-1.2l0.9-0.5   c2.1,2.5,6.8,8.8,9.7,12.6l1.1,1.5l1,4.1C33.6,71.4,27.8,64.1,24.5,60z M42.7,92.8c-0.2,0-0.5-0.3-0.6-0.7L39,78.8c0,0,0,0,0,0   L37.5,72c0,0,0,0,0,0l-0.6-2.6l-0.4-1.7l7.3-1.6c0.3,0.3,0.6,0.5,1,0.7v1.8v23.2c0,0.1,0,0.2,0,0.3L42.7,92.8z M59.6,91.8   c0,0.5-0.4,0.8-0.8,0.8H46.7c-0.5,0-0.8-0.4-0.8-0.8V68.6v-1.7h13.8v1.7V91.8z M61.3,64.2c0,0.7-0.4,1.3-1.1,1.6h-15   c-0.3-0.1-0.6-0.3-0.8-0.6c0,0,0,0,0,0c-0.2-0.3-0.3-0.6-0.3-1c0-0.8,0.5-1.5,1.3-1.7c0.1,0,0.1,0,0.2-0.1c0,0,0,0,0,0   c0,0,0.1-0.1,0.1-0.1c0,0,0,0,0-0.1c0,0,0-0.1,0-0.1c0,0,0,0,0-0.1c0,0,0,0,0-0.1V37.6v-1.7h13.8v1.7v17.1v5.8V62   c0,0.2,0.2,0.5,0.4,0.5C60.8,62.7,61.3,63.4,61.3,64.2z M80.1,46.7c2.7,0.3,5.4,1.5,6.8,2.1c-1.4,0.5-3.9,1.1-6.7,0.8   c-2.8-0.3-6.8-1.7-8.9-2.6C73.5,46.8,77.4,46.4,80.1,46.7z M86.6,21.1c-1.9,1.5-4.2,2.6-5.8,3.2c-0.2,0.1-0.4,0.4-0.3,0.6   c0,0.1,0,0.2,0,0.2c-1.4,3.8-5.2,13.5-10.8,21.1c-0.1,0.1-0.1,0.2-0.1,0.2c-0.1,0-0.1,0.1-0.2,0.2c-0.6,0.8-1.1,1.4-1.6,2.1   c-3.8,4.5-5.9,7.6-7.2,9.7v-3.6c1.7-2.5,4-5.4,6.7-8.5c1.6-1.8,3.2-4,4.8-6.6c0,0,0,0,0,0c0,0,0,0,0,0l1.1-1.7c0,0,0,0,0,0   c0,0,0,0,0,0c3-5,5.2-9.8,6.2-12.3c0-0.1,0-0.1,0-0.2c0.3-0.8,1.8-4.2,4.7-6.6c2.4-1.9,6.4-3.9,8.7-4.9   C91.5,16,88.9,19.3,86.6,21.1z"/><path d="M47.8,31.9h9.8c0.3,0,0.5-0.2,0.5-0.5s-0.2-0.5-0.5-0.5h-9.8c-0.3,0-0.5,0.2-0.5,0.5S47.5,31.9,47.8,31.9z"/><path d="M30,33.4c0,0,0.1,0,0.1,0l5.8-1.1c0.3-0.1,0.5-0.3,0.4-0.6s-0.3-0.5-0.6-0.4l-5.8,1.1c-0.3,0.1-0.5,0.3-0.4,0.6   C29.6,33.2,29.8,33.4,30,33.4z"/><path d="M57.6,61.7h-9.8c-0.3,0-0.5,0.2-0.5,0.5s0.2,0.5,0.5,0.5h9.8c0.3,0,0.5-0.2,0.5-0.5S57.9,61.7,57.6,61.7z"/><path d="M36.7,63.7c0,0,0.1,0,0.1,0l5.9-1.2c0.3-0.1,0.5-0.3,0.4-0.6c-0.1-0.3-0.3-0.5-0.6-0.4l-5.9,1.2c-0.3,0.1-0.5,0.3-0.4,0.6   C36.3,63.5,36.5,63.7,36.7,63.7z"/></g><text x="0" y="115" fill="#000000" font-size="5px" font-weight="bold" font-family="'Helvetica Neue', Helvetica, Arial-Unicode, Arial, Sans-serif"></text><text x="0" y="120" fill="#000000" font-size="5px" font-weight="bold" font-family="'Helvetica Neue', Helvetica, Arial-Unicode, Arial, Sans-serif"></text></svg>
