<svg xmlns="http://www.w3.org/2000/svg" xmlns:xlink="http://www.w3.org/1999/xlink" version="1.1" x="0px" y="0px" viewBox="0 0 120 150" style="enable-background:new 0 0 120 120;" xml:space="preserve"><g><path d="M54.7,59c-0.5-0.2-1.1-0.3-1.6-0.4l0.2-0.5c1.1-2.9-0.3-6.3-3.1-7.5c-0.7-0.3-1.5-0.5-2.3-0.4c-0.2-2-1.5-3.9-3.4-4.7   c-1.4-0.6-2.9-0.6-4.2,0c-1.1,0.5-1.9,1.2-2.5,2.2c-0.4-0.3-0.9-0.6-1.4-0.9c-1.4-0.6-2.9-0.6-4.2,0c-1.4,0.6-2.5,1.8-3,3.3   l-1.6,4.3l-9.7,0.3c-2.3,0.1-4.4,1.6-5.2,3.9L10,65.5c-0.8,2.3-1.1,4.7-0.7,7.2c0.8,5.3,3.3,10.2,7,13.8c0.8,0.7,1,1.9,0.6,3   l-0.3,0.8c-0.4,1,0.1,2.2,1.2,2.6c0.2,0.1,0.5,0.1,0.7,0.1c0.8,0,1.6-0.5,1.9-1.3l0.3-0.8c0.9-2.5,0.3-5.4-1.6-7.3   c-3.1-3-5.1-7.1-5.8-11.5c-0.3-1.7-0.1-3.5,0.5-5.2l2.5-6.9c0.3-0.7,0.9-1.2,1.6-1.2l10.4-0.3c0.3,0,0.4,0.1,0.5,0.2   c0.2,0.2,0.3,0.5,0.3,0.8c0,1.1-0.6,2-1.4,2.5c-2.3-0.8-4.6-1.3-7-1.3c-1.1,0-2,0.8-2.1,1.9c0,1.1,0.8,2,1.9,2.1   c2.4,0.1,4.7,0.6,6.9,1.5c4,1.7,7.3,4.6,9.6,8.5l1.6,2.7c2,3.2,3,3.8,5.8,4.9c0.4,0.1,0.8,0.3,1.2,0.5c0.3,0.1,0.5,0.2,0.8,0.2   c0.8,0,1.5-0.5,1.8-1.2c0.4-1,0-2.2-1.1-2.6c-0.5-0.2-0.9-0.4-1.3-0.5c-2.2-0.9-2.5-1-3.8-3.3l-1.6-2.7c-0.2-0.4-0.5-0.8-0.8-1.2   c2,0.8,3.9,1.6,5.6,2.4c0,0,0,0,0,0c0,0,0,0,0,0c1,0.4,1.9,0.8,2.6,1.1c1.2,0.5,2.3,1.4,3,2.7c1.1,1.8,1.3,4.1,0.5,6l-1.4,3.9   c-0.9,2.5-2.9,4.3-5.3,4.8c-1.2,0.3-2.1,1.1-2.5,2.3l-2.1,5.6c-0.4,1,0.1,2.2,1.2,2.6c0.2,0.1,0.5,0.1,0.7,0.1   c0.8,0,1.6-0.5,1.9-1.3l2-5.4c3.6-0.9,6.5-3.6,7.9-7.3l1.4-3.9c1.1-3.1,0.8-6.6-0.8-9.5l3.4-9.1C58.9,63.5,57.5,60.2,54.7,59z    M46.7,55.3c0.2-0.5,0.5-0.8,0.9-1c0.2-0.1,0.6-0.2,1.1,0c0.8,0.4,1.2,1.4,0.9,2.4l-2.1,5.6c0,0,0,0,0,0l-2.6,7   C44,68.9,43,68.5,42,68L46.7,55.3z M41,50.2c0.2-0.5,0.5-0.8,0.9-1c0.2-0.1,0.6-0.2,1.1,0c0.8,0.4,1.2,1.4,0.9,2.4l-5.5,14.9   c-1-0.4-2-0.8-2.9-1.2L41,50.2z M32.8,51.6c0.2-0.5,0.5-0.8,0.9-1c0.2-0.1,0.6-0.2,1.1,0c0.8,0.4,1.2,1.4,0.9,2.4l-2.6,7.1   c0-0.1,0-0.2,0-0.4c0.1-1.4-0.5-2.8-1.5-3.8c-0.1-0.1-0.2-0.2-0.3-0.3L32.8,51.6z M49.6,71.2c-0.3-0.1-0.6-0.3-1-0.4l2.6-7.1   c0.2-0.5,0.5-0.8,0.9-1c0.2-0.1,0.6-0.2,1.1,0c0.8,0.4,1.2,1.4,0.9,2.4l-2.6,7.2C50.9,71.9,50.2,71.5,49.6,71.2z"/><path d="M110,65.5l-2.5-6.9c-0.8-2.3-2.9-3.8-5.2-3.9l-9.7-0.3l-1.6-4.3c-0.5-1.5-1.7-2.7-3-3.3c-1.4-0.6-2.8-0.6-4.2,0   c-0.5,0.2-1,0.5-1.4,0.9c-0.6-1-1.5-1.8-2.5-2.2c-1.4-0.6-2.8-0.6-4.2,0c-1.9,0.8-3.2,2.7-3.4,4.7c-0.8,0-1.6,0.1-2.3,0.4   c-2.8,1.2-4.2,4.5-3.1,7.5l0.2,0.5c-0.6,0-1.1,0.2-1.6,0.4c-2.8,1.2-4.2,4.5-3.1,7.5l3.4,9.1c0,0,0,0,0,0c-1.7,2.8-2,6.4-0.8,9.5   l1.4,3.9c1.4,3.7,4.3,6.4,7.9,7.3l2,5.4c0.3,0.8,1.1,1.3,1.9,1.3c0.2,0,0.5,0,0.7-0.1c1-0.4,1.6-1.5,1.2-2.6l-2.1-5.6   c-0.4-1.2-1.4-2-2.5-2.3c-2.4-0.5-4.4-2.4-5.3-4.8l-1.4-3.9c-0.7-2-0.5-4.2,0.6-6.1c0.7-1.2,1.8-2.1,3-2.7c0.8-0.3,1.6-0.7,2.6-1.1   c0,0,0,0,0,0c0,0,0,0,0,0c1.7-0.7,3.6-1.5,5.6-2.4c-0.3,0.4-0.5,0.8-0.8,1.2l-1.6,2.7c-1.4,2.3-1.7,2.4-3.8,3.3   c-0.4,0.2-0.8,0.3-1.3,0.5c-1,0.4-1.5,1.6-1.1,2.6c0.3,0.8,1.1,1.2,1.8,1.2c0.3,0,0.5-0.1,0.8-0.2c0.5-0.2,0.9-0.4,1.2-0.5   c2.8-1.1,3.8-1.7,5.8-4.9l1.6-2.7c2.3-3.9,5.7-6.8,9.6-8.5c2.2-0.9,4.5-1.4,6.9-1.5c1.1,0,2-1,1.9-2.1c0-1.1-1-1.9-2.1-1.9   c-2.4,0.1-4.8,0.5-7,1.3c-0.8-0.5-1.3-1.5-1.4-2.5c0-0.3,0.1-0.6,0.3-0.9c0.1-0.1,0.3-0.2,0.5-0.2l10.4,0.3c0.7,0,1.3,0.5,1.6,1.2   l2.5,6.9c0.6,1.6,0.8,3.4,0.5,5.2c-0.7,4.4-2.7,8.5-5.8,11.5c-1.9,1.9-2.5,4.7-1.6,7.2l0.3,0.8c0.3,0.8,1.1,1.3,1.9,1.3   c0.2,0,0.5,0,0.7-0.1c1-0.4,1.6-1.5,1.2-2.6l-0.3-0.8c-0.4-1-0.1-2.3,0.7-3c3.7-3.6,6.2-8.5,7-13.8C111.1,70.3,110.8,67.8,110,65.5   z M85.2,50.6c0.4-0.2,0.8-0.1,1.1,0c0.4,0.2,0.7,0.5,0.9,1l1.5,4c-0.1,0.1-0.2,0.2-0.3,0.3c-1,1-1.5,2.4-1.5,3.8c0,0.1,0,0.2,0,0.4   L84.3,53C84,52.1,84.4,51,85.2,50.6z M77.1,49.2c0.4-0.2,0.8-0.1,1.1,0c0.4,0.2,0.7,0.5,0.9,1l5.5,15.1c-0.9,0.4-1.9,0.8-2.9,1.2   l-4.6-12.5c0,0,0,0,0-0.1l-0.8-2.3C75.9,50.7,76.3,49.6,77.1,49.2z M71.4,54.3c0.4-0.2,0.8-0.1,1.1,0c0.4,0.2,0.7,0.5,0.9,0.9   L78,68c-1,0.4-2,0.8-2.9,1.2l-2.6-7c0,0,0,0,0,0l-2.1-5.6C70.1,55.8,70.5,54.7,71.4,54.3z M68.6,72.3l-2.6-7.2   c-0.3-0.9,0.1-2,0.9-2.4c0.4-0.2,0.8-0.1,1.1,0c0.4,0.2,0.7,0.5,0.9,1l2.6,7.1c-0.3,0.1-0.7,0.3-1,0.4   C69.8,71.5,69.1,71.9,68.6,72.3z"/><path d="M81,27.1c-0.6-3.6-2.7-6.7-5.9-8.5c-3.2-1.8-7-2-10.4-0.6l-4.7,2l-4.7-2c-3.4-1.4-7.2-1.2-10.4,0.6   c-3.2,1.8-5.3,4.9-5.9,8.5c-0.6,3.7,0.7,7.6,3.4,10.2l16.2,15.9c0.4,0.4,0.9,0.6,1.4,0.6s1-0.2,1.4-0.6l16.2-15.9   C80.3,34.7,81.5,30.9,81,27.1z M45.2,34.5c-1.8-1.8-2.6-4.3-2.3-6.8c0.4-2.4,1.8-4.5,3.9-5.7c1.2-0.7,2.5-1,3.9-1c1,0,2,0.2,3,0.6   l5.5,2.3c0.5,0.2,1,0.2,1.5,0l5.5-2.3c2.2-0.9,4.7-0.8,6.9,0.4c2.1,1.2,3.5,3.3,3.9,5.7c0.4,2.5-0.5,5-2.3,6.8L60,49.1L45.2,34.5z"/></g><text x="0" y="135" fill="#000000" font-size="5px" font-weight="bold" font-family="'Helvetica Neue', Helvetica, Arial-Unicode, Arial, Sans-serif">Created by Symbolon</text><text x="0" y="140" fill="#000000" font-size="5px" font-weight="bold" font-family="'Helvetica Neue', Helvetica, Arial-Unicode, Arial, Sans-serif">from the Noun Project</text></svg>