<svg xmlns="http://www.w3.org/2000/svg" xmlns:xlink="http://www.w3.org/1999/xlink" version="1.1" x="0px" y="0px" viewBox="0 0 100 125" enable-background="new 0 0 100 100" xml:space="preserve"><g><path fill-rule="evenodd" clip-rule="evenodd" d="M50,4.749c-19.976,0-36.168,16.194-36.169,36.169   c0,9.987,4.443,18.658,10.594,25.575L50,95.251l25.575-28.757c6.15-6.918,10.594-15.588,10.594-25.576   C86.169,20.943,69.976,4.749,50,4.749z M71.883,62.801C66.038,68.646,58.266,71.864,50,71.864c-8.267,0-16.038-3.219-21.883-9.063   c-5.845-5.847-9.064-13.617-9.064-21.883C19.053,23.854,32.936,9.971,50,9.971c17.063,0,30.946,13.882,30.946,30.947   C80.946,49.184,77.728,56.956,71.883,62.801z"/><path fill-rule="evenodd" clip-rule="evenodd" d="M72.474,25.182c0.382-3.631-2.027,2.261-3.165-0.206   c-0.586-1.271-2.353,0.057-3.071-1.58c-0.319-0.729-1.643-2.559-2.422-2.573c-0.811-0.016-1.017-0.157-1.754,0.029   c-0.704,0.179-1.787,0.49-1.595,1.34c0.042,0.187,0.91-0.044,0.317,0.806c-0.578,0.83-0.021,2.868-1.723,2.435   c-0.017-0.004-0.268-0.192-0.309-0.158c-0.255,0.209-1.292,2.699-0.342,2.733c0.347,0.013,0.113-0.172,0.585-0.234   c0.328-0.043,0.319,0.171,0.646,0.099c0.56-0.125,0.125-1,1.654,0.262c0.831,0.685-1.843,0.162-2.536,1.867   c-0.214,0.524-0.526,0.25-1.002,0.43c-0.361,0.137-0.288,0.689-0.617,0.821c-0.666,0.266-1.681-0.917-1.922,0.268   c-0.121,0.599,0.347,0.586,0.365,1.051c0,0.001-1.499,1.209-1.838,1.368c-0.452,0.211-2.28,0.235-3.513,0.872   c-0.314,0.164-2.153-0.383-2.458-0.545c-1.543-0.822-3.03-0.14-4.815-0.872c-0.785-0.321-0.193-1.521-1.179-1.891   c-0.302-0.113-0.622-0.705-1.067-0.913c-0.764-0.355-1.548,0.24-1.92-0.531c-0.062-0.128,1.119-2.391-0.191-3.098   c-1.246-0.672-1.03-2.062-2.011-1.625c-0.202,0.091-0.073,0.52-0.279,0.603c-0.448,0.182-0.733-0.046-0.962,0.274   c-0.564,0.788-0.029,1.22-1.604,0.817c-1.07-0.274-1.044,0.858-1.797,1.224c-0.139,0.068-1.48,0.004-1.846,0.579   c-0.768,1.203,1.226,2.49-2.05,3.343c-1.608,0.418-1.37-0.181-2.061,0.675c-0.102,0.127-2.197-1.356-2.999,1.104   c-0.224,0.685,0.99-0.412,0.708,1.301c-0.094,0.575,0.539,1.377,0.601,1.913c0.105,0.914-0.145,0.404,0.544,1.153   c0.794,0.867,0.57-0.351,0.897,1.295c0.063,0.32,0.851,0.594,0.396,0.905c-0.808,0.555,0.374,1.465-0.272,1.973   c-0.377,0.295-0.575,0.103-0.592,0.978c-0.007,0.348,0.125,1.313,0.713,1.587c1.41,0.655,0.786-0.754,2.204,0.654   c0.451,0.449,1.387,1.513,1.582,1.764c0.692,0.89,1.701,1.152,2.662,1.511c1.18,0.44,3.906-0.059,4.291,0.478   c0.972,1.353,0.293,2.367,3.024,0.56c1.612-1.066,1.646,0.157,2.376,0.107c0.064-0.003,0.498-1.32,1.103-0.25   c0.08,0.141-0.024,0.356,0.081,0.479c0.512,0.589,0.614,0.115,0.397,1.635c-0.176,1.234-1.47,1.168-1.218,2.456   c0.083,0.421,1.188-0.636,1.362,0.012c0.08,0.291-0.714,0.472-0.137,1.024c0.244,0.235,0.376-0.112,0.543,0.27   c0.163,0.372-0.577,0.843-0.268,0.959c1.141,0.432,0.615,0.741,1.541,0.526c0.417-0.098,0.609,1.063,0.755,0.203   c0.196-1.151-0.302-1.282,1.547-1.201c0.256,0.012,0.329-0.115,0.468-0.037c0.95,0.528,1.737-1.433,2.238-0.654   c0.264,0.41,0.413,0.296,1.017,0.427c0.349,0.076-0.2,0.96,0.799,1.316c0.478,0.17,0.854,0.43,1.105-0.129   c0.021-0.049,1.446,0.089,1.401,0.987c-0.01,0.182,0.306,0.229,0.34,0.406c0.041,0.21-0.275,0.106-0.131,0.264   c0.147,0.16,0.806,0.125,0.191-0.537c-0.899-0.968,4.531-2.132,4.561-2.141c2.108-0.636,2.052-1.343,2.611-1.479   c0.864-0.211,0.245-0.241,0.899-0.963c0.048-0.053,0.696-0.699,0.775-0.789c0.712-0.808,0.818-3.863,1.828-4.125   c0.242-0.063,0.165,0.43,0.296,0.113c0.275-0.673-0.25-0.907-0.232-0.936c1.337-2.264-0.375-0.703-0.702-1.443   c-0.083-0.19,0.053-0.596-0.023-0.823c-0.193-0.571-0.293-0.744-0.217-1.396c0-1.156-1.262-1.723-1.925-2.348   c-0.543-0.512,0.632-0.911,0.673-1.31c0.017-0.167-0.601-0.17,1.258-1.407c0.161-0.106,1.111-0.006,0.654-0.563   c-0.149-0.182-1.795-0.218-2.003,0.029c-1.291,1.529-1.286-0.224-1.415-0.218c-0.473,0.017-0.945-0.208-1.36-0.186   c-0.937,0.047-2.162,0.704-0.551-0.471c0,0,1.153,0.211,0.624-0.245c-0.002-0.001-0.935-0.441,0.235-0.45   c1.816-0.015,1.509-2.148,3.082-2.434c0.918-0.167-0.315,1.911,0.368,2.245c0.454,0.222,0.354-0.958,1.64-1.292   c0.519-0.136,1.533-1.211,1.718-1.771c0.466-1.421,0.813,0.225,1.497-0.572c0.498-0.579-0.461,0.221,0.611-1.076   c0.35-0.423,0.009-0.37,0.425-0.869c0.2-0.24,0.465,0.869,0.685,0.063c0.528-1.938-0.868-2.729,0.057-2.941   C73.471,28.003,72.26,27.226,72.474,25.182z"/><path fill-rule="evenodd" clip-rule="evenodd" d="M66.606,52.909c-0.094-0.025-0.03-0.249-0.122-0.281   c-0.076-0.026-0.127,0.1-0.189,0.15c-0.118,0.101-0.34,0.218-0.354,0.317c-0.007,0.045,0.014,0.092,0.01,0.137   c-0.038,0.374-0.154,0.475-0.263,0.784c-0.22,0.625-0.218,1.055,0.188,1.533c0.142,0.167,0.159,0.12,0.247,0.231   c0.144,0.182-0.058,0.481,0.164,0.387c0.397-0.168,0.026-0.461,0.162-0.839c0.229-0.639,0.543-0.472,0.483-1.577   c-0.011-0.201,0.045-0.219,0.075-0.391c0.03-0.169,0.176-0.455,0.018-0.522C66.831,52.758,66.876,52.982,66.606,52.909z"/><path fill-rule="evenodd" clip-rule="evenodd" d="M55.735,59.241c-0.288,0.13-0.333,0.565-0.421,0.286l-0.091-0.287l-0.665,0.19   c-0.483,0.14-0.147,0.033-0.386,0.299c-0.083,0.093-0.118,0.07-0.231,0.184c-0.344,0.345-0.253,1.299,0.876,1.15   c0.398-0.052,0.19-0.044,0.744-0.484c0.265-0.21,0.193-0.447,0.384-0.856c0.207-0.443,0.413-0.035,0.146-0.543   C56.004,59.015,55.839,59.195,55.735,59.241z"/></g><text x="0" y="115" fill="#000000" font-size="5px" font-weight="bold" font-family="'Helvetica Neue', Helvetica, Arial-Unicode, Arial, Sans-serif"></text><text x="0" y="120" fill="#000000" font-size="5px" font-weight="bold" font-family="'Helvetica Neue', Helvetica, Arial-Unicode, Arial, Sans-serif"></text></svg>
