<svg xmlns="http://www.w3.org/2000/svg" xmlns:xlink="http://www.w3.org/1999/xlink" xml:space="preserve" version="1.1" style="shape-rendering:geometricPrecision;text-rendering:geometricPrecision;image-rendering:optimizeQuality;" viewBox="0 0 662 951.25" x="0px" y="0px" fill-rule="evenodd" clip-rule="evenodd"><defs><style type="text/css">
   
    .fil0 {fill:black}
   
  </style></defs><g><path class="fil0" d="M395 390c17,7 20,4 37,-3 -9,-34 -45,-51 -49,-18 -3,20 -1,11 12,21z"/><path class="fil0" d="M369 337c25,-8 37,-20 43,-42 -29,-15 -46,7 -43,42zm27 -25c-2,3 -5,4 -9,4 -4,0 -7,-3 -7,-7 2,2 5,4 8,4 3,0 6,0 8,-1z"/><path class="fil0" d="M449 312c-4,26 13,65 30,78 44,-21 22,-84 -30,-78zm30 30c-3,4 -8,6 -12,4 -5,-2 -7,-8 -5,-13 1,4 4,7 7,8 3,2 7,2 10,1z"/><path class="fil0" d="M419 197c185,-44 248,150 115,209 -215,79 -218,-184 -115,-209zm-2 -13c-18,-20 -55,-3 -58,24 -8,-26 45,-62 58,-24zm-140 107c-8,-35 -19,-104 -25,-152 18,20 30,104 25,152zm375 -19c-8,-20 -24,-42 -53,-40 32,-10 55,14 53,40zm-300 489c-8,-7 -21,-21 -27,-26 -6,0 -45,10 -50,9 12,-33 18,-71 19,-116 -18,-23 -40,-29 -60,-59 -37,-11 -61,-38 -77,-44 -2,17 -22,89 -39,106 -24,-25 30,-88 35,-110 -42,0 -86,68 -153,83 35,-42 103,-99 157,-87l3 3c19,6 48,28 67,36 -23,-42 -79,-140 -97,-196 -42,-43 -27,-72 -25,-118 13,58 27,85 31,113 0,-1 5,16 5,15 -1,-34 56,-86 55,-125 47,50 -48,124 -48,126 0,4 4,11 2,16 16,38 58,115 89,163 8,-3 9,8 12,16 14,18 29,26 43,36 -1,-71 -12,-156 -28,-260 -7,-6 -8,-15 -4,-22 -12,-77 -30,-160 -34,-237l18 -6c3,4 17,15 22,19 0,-25 0,-50 1,-75 1,-1 11,12 12,12 6,-13 22,-33 31,-33 2,70 15,161 31,260 3,-11 6,-20 13,-29 -46,-31 41,-116 75,-52 27,-12 116,1 155,41 79,-20 108,79 30,98 0,13 -9,42 -15,50 2,8 11,14 8,40 69,152 16,288 -91,282 -80,0 -114,-42 -133,-46 -5,52 -19,94 -33,117zm-15 -363c7,2 17,11 21,3 4,-6 -16,-6 -21,-3zm-9 21c7,0 27,13 31,2 2,-7 -22,-6 -31,-2zm5 17c1,7 28,19 29,9 1,-8 -22,-4 -29,-9zm21 106c5,-4 27,5 27,-3 1,-10 -28,0 -27,3zm-7 23c9,-2 32,6 33,-2 1,-10 -27,-4 -33,2zm15 25c10,3 21,9 24,4 4,-6 -15,-6 -24,-4zm-213 -234c11,-14 31,-42 40,-62 -12,13 -33,44 -40,62zm126 -23c12,17 53,18 63,3 -24,10 -42,6 -63,-3zm82 295c-15,4 -40,2 -54,-9 8,21 53,16 54,9zm-62 -228c15,98 17,122 19,195 11,-90 10,-119 -19,-195zm312 41c27,68 25,182 -48,182 -30,0 -54,-29 -65,-53 -25,-47 -93,-64 -113,-51 1,-9 -1,-31 -2,-41 111,72 225,38 228,-37z"/></g><text x="0" y="776" fill="#000000" font-size="5px" font-weight="bold" font-family="'Helvetica Neue', Helvetica, Arial-Unicode, Arial, Sans-serif"></text><text x="0" y="781" fill="#000000" font-size="5px" font-weight="bold" font-family="'Helvetica Neue', Helvetica, Arial-Unicode, Arial, Sans-serif"></text></svg>
