<svg xmlns="http://www.w3.org/2000/svg" xmlns:xlink="http://www.w3.org/1999/xlink" xml:space="preserve" version="1.1" style="shape-rendering:geometricPrecision;text-rendering:geometricPrecision;image-rendering:optimizeQuality;" viewBox="0 0 333 416.25" x="0px" y="0px" fill-rule="evenodd" clip-rule="evenodd"><defs><style type="text/css">
   
    .fil0 {fill:black}
   
  </style></defs><g><path class="fil0" d="M219 149c-26,152 -311,19 -136,-102 50,-58 178,44 136,102zm-120 25c14,15 25,17 49,1 25,-15 -73,-28 -49,-1zm52 -56c7,7 4,5 8,11 47,70 52,-39 -1,-36 -17,2 -18,14 -7,25zm21 1c8,1 8,6 10,7 0,-2 -8,-17 -22,-20 -5,-1 -4,10 12,13zm-115 26c0,2 2,2 4,2 104,-8 20,-124 -4,-2zm23 -25c-7,2 -8,7 -10,7 -2,1 8,-17 21,-20 6,-1 6,8 -11,13l0 0zm-42 70c8,11 4,55 11,77 28,81 55,49 74,-10l20 1c-7,141 86,10 97,1 14,21 -10,11 23,51 52,62 110,-209 -24,-247 -1,-43 -20,-59 -56,-33 -37,-21 -83,-21 -101,-7 -53,-36 -90,14 -58,54 -12,40 -23,75 14,113l0 0zm193 -113c23,49 16,71 1,91 3,25 20,45 14,73 76,-12 82,-140 -15,-164zm-192 -57c-6,-3 36,3 29,18 -1,2 -5,5 -7,5 -2,-1 -2,-12 -22,-23l0 0zm177 9c6,-3 -27,4 -24,16 1,3 3,5 7,4 4,0 -1,-13 17,-20z"/></g><text x="0" y="348" fill="#000000" font-size="5px" font-weight="bold" font-family="'Helvetica Neue', Helvetica, Arial-Unicode, Arial, Sans-serif"></text><text x="0" y="353" fill="#000000" font-size="5px" font-weight="bold" font-family="'Helvetica Neue', Helvetica, Arial-Unicode, Arial, Sans-serif"></text></svg>
