<svg xmlns="http://www.w3.org/2000/svg" xmlns:xlink="http://www.w3.org/1999/xlink" version="1.1" x="0px" y="0px" viewBox="0 0 100 125" enable-background="new 0 0 100 100" xml:space="preserve"><g><path d="M93.312,44.191c-0.298-0.795-0.686-1.667-1.496-2.658c-0.713-0.871-1.107-1.854-1.107-2.2c0-0.067,0.005-0.153,0.011-0.255   c0.055-1.048,0.184-3.501-1.856-6.44c-1.913-2.754-3.398-4.563-7.198-5.724c-0.045-0.977-0.22-1.938-0.991-2.478   c-0.579-0.404-1.328-0.447-2.227-0.128c-0.951,0.338-1.612,0.979-2.071,1.762c-1.207-0.009-2.187,0.108-2.922,0.204   c-0.42,0.055-0.784,0.102-1.036,0.102c-1.119,0-5.302-0.662-8.288-1.311c-0.914-0.199-1.547-0.372-2.07-0.514   c-1.122-0.306-1.864-0.508-3.684-0.508c-1.277,0-2.568,0.241-3.934,0.497c-1.431,0.268-2.912,0.544-4.441,0.544   c-1.204,0-2.768-0.13-4.579-0.28c-2.75-0.229-6.173-0.512-10.212-0.512c-6.886,0-11.017,2.536-15.703,5.851l-0.18,0.127   c-2.528,1.788-5.245,3.72-7.107,7.154c-0.275,0.358-4.2,5.504-4.98,8.625c-0.369,1.475-0.573,3.085-0.561,4.418   c0.011,1.153,0.155,2.72,1.289,3.003c0.177,0.044,0.349,0.065,0.515,0.065c0.62,0,1.162-0.295,1.637-0.734   c0.429,4.624,1.466,7.134,2.274,9.078c0.445,1.07,0.796,1.915,0.955,2.869c0.165,0.988,0.316,2.057,0.465,3.111   c0.413,2.917,0.77,5.436,1.393,6.579c0.684,1.253,1.534,2.813,3.378,2.813c0.303,0,0.836,0.012,1.481,0.025   c1.232,0.026,2.422,0.048,3.422,0.048c0.98,0,1.78-0.021,2.262-0.082c1.199-0.149,4.008-0.5,3.875-3.044   c-0.129-2.459-1.257-3.318-4.472-3.405c-0.112-0.007-0.219,0.018-0.323,0.05c-0.053-0.308-0.088-0.616-0.079-0.895   c0.034-1.076,1.112-4.342,1.746-5.746c0.127-0.281,0.402-0.755,0.722-1.304c0.396-0.682,0.875-1.512,1.327-2.405   C30.268,60.971,34.376,62,37.792,62c4.526,0,7.759-1.847,9.496-2.84c1.326-0.757,2.084-1.059,3.062-1.156   c0.058,0.31,0.114,0.62,0.173,0.927c0.256,1.322,0.521,2.689,0.443,3.32c-0.187,1.496-0.221,3.777,0.296,5.283l0.092,0.269   c1.607,4.7,2.604,6.918,3.443,7.656c1.234,1.086,3.814,1.421,6.417,1.622c0.608,0.047,1.228,0.081,1.833,0.081   c1.814,0,3.49-0.304,4.281-1.477c0.949-1.406,1.102-3.428-0.443-4.571c-0.834-0.618-2.726-1.29-3.745-1.627   c-0.001-0.667,0.022-1.405,0.103-2.126c0.259-2.332,0.917-6.813,1.208-7.722c0.116-0.362,0.462-0.99,0.797-1.599   c0.547-0.994,1.064-1.933,1.159-2.661c0.16-1.227,0.837-3.415,1.493-3.92c0.491-0.378,2.549-0.672,4.163-0.71   c0.151-0.003,0.29-0.045,0.417-0.108c0.029,0.031,0.054,0.067,0.084,0.098c0.798,0.809,1.758,1.219,2.852,1.219l1.683-0.001   c3.175-0.003,4.487-0.007,6.152,0.202c0.825,0.103,1.565,0.324,2.281,0.537c0.803,0.239,1.516,0.451,2.207,0.451   c0.151,0,0.3-0.01,0.45-0.032c1.608-0.238,2.767-0.46,3.254-1.113c0.399-0.137,0.831-0.428,1.256-0.959   c0.198-0.248,0.414-0.49,0.624-0.727c0.772-0.87,1.571-1.77,1.465-2.831c-0.069-0.686-0.469-1.442-1.027-2.437   C93.58,44.726,93.375,44.361,93.312,44.191z M64.327,55.44L53.096,66.671c-0.025-0.088-0.051-0.173-0.071-0.27l11.423-11.423   c-0.014,0.083-0.022,0.138-0.023,0.143C64.415,55.199,64.377,55.312,64.327,55.44z M62.447,59.402l-8.827,8.827   c-0.029-0.082-0.059-0.168-0.088-0.252l9.058-9.058c-0.013,0.036-0.031,0.075-0.042,0.109   C62.517,59.126,62.482,59.257,62.447,59.402z M65.697,72.721c0.02,0.015,0.029,0.034,0.047,0.049l-2.383,2.383   c-0.109,0.002-0.225,0.003-0.344,0.003l2.529-2.529C65.597,72.658,65.657,72.691,65.697,72.721z M64.93,74.973   c-0.123,0.033-0.266,0.062-0.429,0.088l1.528-1.528c-0.009,0.141-0.034,0.282-0.074,0.415L64.93,74.973z M64.096,75.112   c-0.114,0.011-0.237,0.02-0.367,0.026l2.18-2.18c0.046,0.076,0.079,0.157,0.099,0.242L64.096,75.112z M62.668,75.151   c-0.107-0.002-0.217-0.005-0.331-0.01l2.757-2.757c0.081,0.039,0.156,0.077,0.227,0.114L62.668,75.151z M61.998,75.127   c-0.103-0.005-0.212-0.013-0.321-0.02l2.938-2.938c0.083,0.035,0.159,0.07,0.237,0.104L61.998,75.127z M61.346,75.084   c-0.087-0.006-0.204-0.016-0.316-0.025l3.092-3.092c0.083,0.033,0.163,0.065,0.243,0.098L61.346,75.084z M60.705,75.031   c-0.1-0.008-0.204-0.018-0.313-0.028l2.15-2.15c0.324-0.103,0.576-0.346,0.666-0.666l0.411-0.411   c0.083,0.031,0.166,0.062,0.248,0.093L60.705,75.031z M56.119,73.958c-0.029-0.025-0.066-0.065-0.112-0.124l5.146-5.146   c-0.003,0.118-0.007,0.234-0.009,0.35l-4.96,4.96C56.166,73.984,56.136,73.973,56.119,73.958z M61.295,66.804l-5.913,5.913   c-0.035-0.074-0.07-0.15-0.108-0.233l6.067-6.067C61.325,66.551,61.31,66.681,61.295,66.804z M61.251,67.201   c-0.013,0.124-0.021,0.248-0.032,0.373l-5.608,5.608c-0.036-0.068-0.075-0.146-0.114-0.227L61.251,67.201z M61.186,67.96   c-0.008,0.121-0.012,0.238-0.018,0.358l-5.306,5.306c-0.039-0.062-0.081-0.13-0.127-0.213L61.186,67.96z M61.142,69.394   c0,0.115-0.002,0.231-0.001,0.342l-4.519,4.519c-0.084-0.038-0.147-0.081-0.22-0.121L61.142,69.394z M61.147,70.082   c0.003,0.111,0.004,0.229,0.007,0.333l-4.027,4.027c-0.091-0.028-0.165-0.062-0.249-0.092L61.147,70.082z M61.17,70.754   c0.005,0.111,0.009,0.227,0.015,0.326l-3.508,3.508c-0.093-0.022-0.183-0.045-0.271-0.069L61.17,70.754z M61.206,71.412   c0.009,0.126,0.016,0.228,0.023,0.317l-2.979,2.979c-0.096-0.018-0.193-0.034-0.287-0.054L61.206,71.412z M61.264,72.049   c0.013,0.093,0.042,0.18,0.079,0.262l-2.501,2.501c-0.099-0.015-0.194-0.031-0.293-0.048L61.264,72.049z M61.479,72.528   c0.051,0.064,0.103,0.124,0.167,0.173l-2.198,2.198c-0.098-0.012-0.199-0.029-0.298-0.042L61.479,72.528z M61.866,72.835   c0.087,0.037,0.182,0.051,0.279,0.062l-2.073,2.073c-0.099-0.011-0.203-0.023-0.306-0.035L61.866,72.835z M63.243,71.799   c-0.001-0.014-0.007-0.074-0.015-0.166c0.044,0.016,0.088,0.031,0.133,0.047L63.243,71.799z M61.391,66.013l-6.227,6.227   c-0.033-0.075-0.068-0.156-0.103-0.238l6.379-6.379C61.424,65.757,61.407,65.885,61.391,66.013z M61.495,65.215l-6.539,6.539   c-0.032-0.077-0.066-0.159-0.1-0.241l6.692-6.692C61.53,64.954,61.512,65.086,61.495,65.215z M61.604,64.412l-6.851,6.851   c-0.032-0.079-0.064-0.16-0.098-0.243l7.004-7.004C61.641,64.148,61.623,64.28,61.604,64.412z M61.719,63.602l-7.163,7.163   c-0.032-0.083-0.063-0.158-0.096-0.245l7.318-7.318C61.758,63.336,61.739,63.469,61.719,63.602z M61.84,62.787l-7.477,7.477   c-0.031-0.081-0.062-0.163-0.094-0.247l7.633-7.633C61.882,62.517,61.861,62.651,61.84,62.787z M54.173,69.76   c-0.029-0.079-0.062-0.167-0.091-0.25l7.954-7.954c-0.022,0.133-0.044,0.27-0.066,0.407L54.173,69.76z M53.986,69.252   c-0.03-0.084-0.06-0.162-0.091-0.25l8.285-8.285c-0.024,0.134-0.048,0.271-0.073,0.414L53.986,69.252z M53.803,68.741   c-0.03-0.082-0.06-0.167-0.09-0.251l8.633-8.633c-0.028,0.133-0.056,0.274-0.085,0.426L53.803,68.741z M53.441,67.714   c-0.029-0.084-0.058-0.167-0.087-0.253l9.852-9.852c-0.131,0.242-0.247,0.472-0.354,0.695L53.441,67.714z M53.262,67.199   c-0.005-0.015-0.009-0.028-0.015-0.043l-0.072-0.211l10.844-10.844c-0.124,0.243-0.259,0.496-0.386,0.727L53.262,67.199z    M52.971,66.101c-0.016-0.097-0.032-0.194-0.044-0.296l11.696-11.696c-0.037,0.161-0.067,0.305-0.093,0.434L52.971,66.101z    M52.892,65.486c-0.009-0.104-0.017-0.21-0.023-0.317l12-12c-0.048,0.163-0.091,0.32-0.131,0.472L52.892,65.486z M65.497,51.492   L52.843,64.146c0.001-0.118,0.006-0.234,0.01-0.351l13.083-13.083C65.775,50.954,65.629,51.217,65.497,51.492z M65.223,52.12   c-0.069,0.178-0.133,0.356-0.192,0.533l-12.18,12.18c-0.004-0.111-0.004-0.223-0.006-0.335L65.223,52.12z M52.87,63.425   c0.007-0.123,0.014-0.247,0.024-0.365l13.304-13.304c0.011,0.1,0.021,0.208,0.031,0.31L52.87,63.425z M52.933,62.667   c0.006-0.055,0.011-0.115,0.018-0.168c0.007-0.059,0.001-0.133,0.005-0.195l13.167-13.167c0.013,0.101,0.025,0.2,0.038,0.303   L52.933,62.667z M52.966,61.94c-0.001-0.111,0.003-0.217-0.004-0.337l13.083-13.083c0.014,0.099,0.027,0.199,0.041,0.3   L52.966,61.94z M52.93,61.282c-0.01-0.103-0.017-0.203-0.031-0.31l13.055-13.055c0.015,0.096,0.029,0.198,0.044,0.297L52.93,61.282   z M52.861,60.656c-0.014-0.093-0.032-0.196-0.048-0.293l13.038-13.038c0.018,0.096,0.035,0.189,0.052,0.289L52.861,60.656z    M52.764,60.059c-0.017-0.1-0.029-0.191-0.048-0.293L65.74,46.743c0.02,0.094,0.039,0.186,0.058,0.283L52.764,60.059z    M52.661,59.468c-0.018-0.093-0.036-0.191-0.055-0.286l13.01-13.01c0.021,0.089,0.041,0.188,0.061,0.28L52.661,59.468z    M52.55,58.884c-0.019-0.097-0.035-0.188-0.054-0.287l12.979-12.979c0.023,0.088,0.046,0.18,0.069,0.271L52.55,58.884z M52.44,58.3   c-0.019-0.096-0.035-0.191-0.054-0.287L65.32,45.08c0.026,0.086,0.052,0.173,0.078,0.263L52.44,58.3z M52.331,57.715   c-0.018-0.096-0.036-0.191-0.054-0.287l12.872-12.872c0.029,0.084,0.059,0.166,0.087,0.253L52.331,57.715z M48.863,27.054   c0.032,0.001,0.069,0.004,0.101,0.005l-0.274,0.274C48.753,27.229,48.811,27.132,48.863,27.054z M48.287,28.09l1.022-1.022   c0.113,0.003,0.224,0.006,0.333,0.007l-1.612,1.612C48.117,28.471,48.201,28.271,48.287,28.09z M47.812,29.26l2.177-2.177   c0.003,0,0.008,0,0.012,0c0.116,0,0.227-0.011,0.342-0.014l-2.662,2.662C47.725,29.576,47.764,29.403,47.812,29.26z M47.543,30.222   l3.167-3.167c0.118-0.005,0.238-0.006,0.355-0.014l-3.609,3.609C47.485,30.506,47.511,30.358,47.543,30.222z M47.383,31.077   l4.064-4.064c0.129-0.011,0.254-0.028,0.382-0.042l-4.518,4.518C47.332,31.344,47.36,31.215,47.383,31.077z M47.427,36.587   l6.792-6.792c0.031,0.083,0.062,0.165,0.094,0.247l-6.843,6.843C47.456,36.786,47.44,36.688,47.427,36.587z M47.27,31.885   l4.957-4.957c0.13-0.017,0.261-0.031,0.39-0.049l-5.371,5.371C47.255,32.129,47.258,32.001,47.27,31.885z M53.036,26.813   c0.047-0.007,0.095-0.015,0.142-0.022c0.018,0.056,0.035,0.108,0.054,0.167l-6.034,6.034c0.003-0.128,0.018-0.24,0.023-0.364   L53.036,26.813z M53.319,27.224c0.028,0.085,0.055,0.167,0.084,0.256l-6.199,6.199c-0.002-0.109-0.01-0.222-0.01-0.331   L53.319,27.224z M53.492,27.745c0.028,0.084,0.056,0.167,0.086,0.255l-6.353,6.353c-0.006-0.112-0.006-0.22-0.01-0.331   L53.492,27.745z M53.668,28.263c0.029,0.083,0.058,0.167,0.088,0.253l-6.493,6.493c-0.008-0.104-0.02-0.209-0.027-0.313   L53.668,28.263z M53.848,28.778c0.029,0.083,0.06,0.167,0.09,0.251l-6.612,6.612c-0.011-0.104-0.021-0.207-0.031-0.31   L53.848,28.778z M54.031,29.289c0.03,0.083,0.062,0.166,0.092,0.249l-6.734,6.734c-0.012-0.104-0.019-0.207-0.03-0.311   L54.031,29.289z M46.909,50.992l4.061-4.061c-0.012,0.061-0.039,0.204-0.078,0.419l-4.063,4.063   C46.854,51.271,46.881,51.132,46.909,50.992z M46.755,51.84l4.059-4.059c-0.022,0.127-0.046,0.263-0.072,0.413l-4.053,4.053   C46.71,52.11,46.733,51.976,46.755,51.84z M46.634,52.656l4.036-4.036c-0.021,0.129-0.044,0.269-0.067,0.408l-4.022,4.022   C46.597,52.917,46.617,52.788,46.634,52.656z M46.543,53.441l3.994-3.994c-0.021,0.134-0.042,0.265-0.063,0.404l-3.967,3.967   C46.518,53.691,46.531,53.566,46.543,53.441z M47.877,56.614c-0.21,0.091-0.425,0.193-0.646,0.305l2.76-2.76   c-0.006,0.122-0.009,0.237-0.013,0.354L47.877,56.614z M46.547,57.25c-0.012-0.102-0.026-0.204-0.035-0.306l3.528-3.528   c-0.01,0.125-0.017,0.244-0.025,0.366L46.547,57.25z M46.484,56.619c-0.008-0.108-0.011-0.216-0.017-0.324l3.644-3.644   c-0.013,0.127-0.024,0.251-0.036,0.376L46.484,56.619z M46.449,55.959c-0.003-0.112-0.005-0.223-0.006-0.335l3.755-3.755   c-0.016,0.129-0.029,0.256-0.044,0.385L46.449,55.959z M46.444,55.27c0.001-0.114-0.002-0.228,0.001-0.342l3.854-3.854   c-0.018,0.131-0.035,0.261-0.051,0.392L46.444,55.27z M46.463,54.557c0.005-0.12,0.011-0.24,0.019-0.359l3.932-3.932   c-0.02,0.132-0.039,0.263-0.058,0.398L46.463,54.557z M49.971,54.874c-0.001,0.117-0.001,0.23,0.001,0.339l-1.023,1.023   c-0.165,0.045-0.33,0.095-0.492,0.151L49.971,54.874z M49.988,55.551c0.006,0.088,0.009,0.184,0.018,0.264   c0.002,0.017,0.006,0.035,0.007,0.052l-0.186,0.186c-0.144,0.02-0.279,0.048-0.417,0.076L49.988,55.551z M52.221,57.13   c-0.018-0.101-0.03-0.194-0.047-0.294L64.96,44.051c0.032,0.081,0.065,0.159,0.097,0.244L52.221,57.13z M52.129,56.528   c-0.016-0.101-0.029-0.199-0.043-0.297l12.668-12.668c0.036,0.078,0.071,0.153,0.106,0.235L52.129,56.528z M52.041,55.922   c-0.013-0.097-0.033-0.203-0.043-0.297L64.53,43.092c0.038,0.075,0.077,0.148,0.114,0.227L52.041,55.922z M51.974,55.295   c-0.004-0.104-0.006-0.218-0.006-0.334l12.322-12.322c0.041,0.072,0.082,0.144,0.122,0.219L51.974,55.295z M51.973,54.602   c0.003-0.115,0.007-0.231,0.014-0.354L64.033,42.2c0.043,0.07,0.086,0.14,0.128,0.212L51.973,54.602z M52.01,53.87   c0.008-0.12,0.019-0.245,0.029-0.37l11.726-11.726c0.045,0.068,0.089,0.138,0.133,0.208L52.01,53.87z M52.074,53.112   c0.012-0.125,0.025-0.251,0.039-0.379l11.375-11.375c0.046,0.068,0.091,0.136,0.137,0.204L52.074,53.112z M52.157,52.334   c0.015-0.128,0.03-0.257,0.046-0.387l11.002-11.002c0.047,0.067,0.093,0.135,0.139,0.202L52.157,52.334z M52.255,51.542   c0.018-0.132,0.035-0.263,0.053-0.394L62.926,40.53c0.045,0.067,0.091,0.138,0.137,0.204L52.255,51.542z M52.365,50.737   c0.02-0.135,0.039-0.267,0.059-0.399l10.223-10.223c0.046,0.069,0.091,0.136,0.137,0.204L52.365,50.737z M52.487,49.921   c0.021-0.137,0.042-0.272,0.063-0.404l9.814-9.814c0.034,0.05,0.074,0.1,0.106,0.15c0.011,0.018,0.022,0.033,0.034,0.05   L52.487,49.921z M52.619,49.095c0.023-0.142,0.046-0.276,0.069-0.41l9.389-9.389c0.05,0.066,0.094,0.133,0.142,0.199L52.619,49.095   z M52.761,48.259c0.025-0.146,0.05-0.284,0.074-0.415l8.931-8.931c0.052,0.062,0.105,0.124,0.155,0.186L52.761,48.259z    M52.914,47.411c0.009-0.045,0.019-0.098,0.026-0.139c0.015-0.077,0.001-0.151-0.002-0.226l8.506-8.506   c0.055,0.06,0.107,0.121,0.16,0.181L52.914,47.411z M52.883,46.748c-0.03-0.082-0.057-0.164-0.106-0.235l8.33-8.33   c0.056,0.058,0.111,0.117,0.166,0.175L52.883,46.748z M52.6,46.337c-0.063-0.054-0.13-0.097-0.206-0.135l8.367-8.367   c0.058,0.056,0.117,0.11,0.174,0.167L52.6,46.337z M52.141,46.102c-0.118-0.021-0.233-0.015-0.345,0.004l8.611-8.611   c0.059,0.055,0.115,0.112,0.173,0.167L52.141,46.102z M46.999,50.549c0.032-0.15,0.065-0.294,0.099-0.439l12.943-12.943   c0.061,0.053,0.121,0.106,0.18,0.161L46.999,50.549z M47.204,49.649c0.039-0.158,0.078-0.307,0.118-0.458L59.672,36.84   c0.061,0.053,0.121,0.105,0.182,0.159L47.204,49.649z M47.45,48.709c0.044-0.161,0.088-0.322,0.132-0.473l11.713-11.713   c0.062,0.051,0.123,0.104,0.185,0.156L47.45,48.709z M47.733,47.731c0.053-0.175,0.104-0.338,0.155-0.496l11.028-11.028   c0.063,0.052,0.124,0.101,0.188,0.153L47.733,47.731z M48.058,46.712c0.063-0.19,0.123-0.367,0.172-0.513l10.302-10.302   c0.062,0.049,0.125,0.102,0.188,0.152L48.058,46.712z M48.349,45.728c0.026-0.129,0.046-0.265,0.063-0.403l9.735-9.735   c0.062,0.049,0.126,0.101,0.189,0.151L48.349,45.728z M48.455,44.927c0.006-0.11,0.003-0.231,0.005-0.346l9.3-9.3   c0.063,0.05,0.125,0.099,0.19,0.151L48.455,44.927z M48.466,44.222c-0.002-0.104-0.011-0.217-0.016-0.325l8.926-8.926   c0.063,0.051,0.123,0.1,0.188,0.153L48.466,44.222z M48.432,43.562c-0.007-0.104-0.015-0.209-0.024-0.316l8.588-8.588   c0.061,0.051,0.122,0.103,0.186,0.155L48.432,43.562z M48.374,42.925c-0.011-0.104-0.019-0.204-0.032-0.309l8.282-8.282   c0.058,0.052,0.119,0.106,0.181,0.16L48.374,42.925z M48.302,42.302c-0.013-0.099-0.027-0.2-0.041-0.3l8.014-8.014   c0.027,0.029,0.054,0.068,0.08,0.094s0.059,0.054,0.086,0.081L48.302,42.302z M48.22,41.69c-0.015-0.097-0.03-0.197-0.045-0.295   l7.801-7.801c0.046,0.068,0.093,0.143,0.138,0.203L48.22,41.69z M48.127,41.089c-0.016-0.099-0.03-0.195-0.046-0.295l7.629-7.629   c0.042,0.073,0.083,0.149,0.124,0.217L48.127,41.089z M48.032,40.49c-0.016-0.097-0.032-0.195-0.048-0.293l7.483-7.483   c0.039,0.075,0.077,0.155,0.115,0.226L48.032,40.49z M47.934,39.894c-0.011-0.065-0.021-0.128-0.032-0.194   c-0.005-0.032-0.011-0.067-0.016-0.099l7.352-7.352c0.037,0.078,0.073,0.156,0.11,0.231L47.934,39.894z M47.836,39.296   c-0.016-0.096-0.032-0.195-0.048-0.293l7.23-7.23c0.036,0.08,0.071,0.157,0.106,0.234L47.836,39.296z M47.739,38.699   c-0.016-0.098-0.032-0.194-0.048-0.293l7.118-7.118c0.034,0.081,0.068,0.159,0.103,0.238L47.739,38.699z M47.642,38.102   c-0.016-0.098-0.028-0.199-0.042-0.298l7.008-7.008c0.033,0.081,0.066,0.162,0.099,0.242L47.642,38.102z M47.556,37.494   c-0.015-0.099-0.028-0.199-0.042-0.298l6.898-6.898c0.032,0.082,0.063,0.164,0.095,0.246L47.556,37.494z M26.649,75.065   c-0.125,0.029-0.27,0.057-0.426,0.085l1.362-1.362c0.014,0.095,0.022,0.198,0.03,0.311L26.649,75.065z M27.618,74.45   c-0.03,0.178-0.156,0.325-0.452,0.452L27.618,74.45z M25.805,75.214c-0.102,0.015-0.192,0.029-0.304,0.043   c-0.023,0.003-0.062,0.004-0.087,0.007l1.98-1.98c0.053,0.064,0.094,0.137,0.124,0.217L25.805,75.214z M25.031,75.294   c-0.107,0.005-0.23,0.009-0.354,0.013l2.296-2.296c0.09,0.032,0.165,0.07,0.23,0.11L25.031,75.294z M24.314,75.316   c-0.112,0.002-0.226,0.003-0.345,0.004l2.437-2.437c0.105,0.015,0.202,0.032,0.29,0.051L24.314,75.316z M23.614,75.323   c-0.112,0-0.225,0-0.341,0l1.485-1.485c0.254-0.105,0.441-0.303,0.539-0.539l0.477-0.477c0.112,0.007,0.217,0.016,0.316,0.025   L23.614,75.323z M20.107,75.276c-0.089-0.002-0.169-0.003-0.254-0.005l3.198-3.198c0.025,0.095,0.05,0.178,0.076,0.265   l-2.939,2.939C20.162,75.277,20.132,75.276,20.107,75.276z M18.583,75.25c-0.031,0-0.06-0.006-0.089-0.009l4.323-4.323   c0.014,0.1,0.03,0.196,0.047,0.294l-4.04,4.04C18.735,75.251,18.651,75.25,18.583,75.25z M22.832,69.162l-5.294,5.294   c-0.043-0.064-0.087-0.133-0.133-0.208l5.508-5.508C22.881,68.886,22.854,69.027,22.832,69.162z M22.773,69.573   c-0.012,0.111-0.02,0.216-0.023,0.313c0,0.017,0.001,0.034,0.001,0.05l-4.918,4.918c-0.049-0.056-0.1-0.117-0.153-0.188   L22.773,69.573z M22.76,70.281c0.004,0.107,0.011,0.213,0.021,0.32l-4.567,4.567c-0.067-0.033-0.135-0.081-0.203-0.138   L22.76,70.281z M22.919,71.511c0.02,0.096,0.042,0.186,0.063,0.277l-3.476,3.476c-0.117-0.002-0.23-0.005-0.334-0.007   L22.919,71.511z M23.208,72.61c0.029,0.091,0.058,0.181,0.084,0.257l-2.425,2.425c-0.117-0.002-0.223-0.004-0.334-0.007   L23.208,72.61z M23.385,73.127c0.029,0.077,0.051,0.135,0.062,0.161c0.011,0.028,0.031,0.048,0.044,0.074l-1.941,1.941   c-0.115-0.002-0.223-0.004-0.334-0.006L23.385,73.127z M23.63,73.577c0.054,0.061,0.113,0.116,0.179,0.162l-1.576,1.576   c-0.113-0.001-0.224-0.003-0.336-0.005L23.63,73.577z M24.046,73.855c0.092,0.033,0.187,0.051,0.285,0.056l-1.41,1.41   c-0.112-0.001-0.225-0.002-0.337-0.003L24.046,73.855z M25.364,72.878c-0.001-0.026-0.011-0.051-0.014-0.077   c0.029,0.001,0.06,0.002,0.088,0.003L25.364,72.878z M23.016,68.283l-5.745,5.745c-0.04-0.067-0.082-0.142-0.124-0.217l5.985-5.985   C23.09,67.981,23.052,68.134,23.016,68.283z M17.02,73.584c-0.02-0.037-0.038-0.066-0.059-0.105   c-0.018-0.033-0.035-0.086-0.053-0.125l6.503-6.503c-0.05,0.163-0.098,0.324-0.145,0.485L17.02,73.584z M16.804,73.106   c-0.027-0.077-0.053-0.173-0.08-0.261l7.018-7.018c-0.057,0.168-0.113,0.337-0.168,0.509L16.804,73.106z M16.645,72.571   c-0.022-0.085-0.043-0.184-0.065-0.275l7.543-7.543c-0.063,0.17-0.127,0.35-0.192,0.533L16.645,72.571z M16.513,72.008   c-0.02-0.092-0.04-0.185-0.06-0.281l8.119-8.119c-0.07,0.165-0.149,0.359-0.232,0.573L16.513,72.008z M16.396,71.431   c-0.019-0.096-0.037-0.186-0.056-0.285l9.005-9.005c-0.168,0.289-0.313,0.548-0.435,0.775L16.396,71.431z M26.951,59.211   c-0.091,0.188-0.187,0.374-0.281,0.558L16.188,70.25c-0.015-0.096-0.03-0.197-0.046-0.295l10.905-10.905   C27.017,59.104,26.977,59.157,26.951,59.211z M26.267,60.525c-0.148,0.27-0.295,0.531-0.438,0.778l-9.541,9.541   c-0.017-0.096-0.033-0.193-0.05-0.291L26.267,60.525z M16.095,69.649c-0.015-0.099-0.031-0.195-0.046-0.295l11.373-11.373   c0.003,0.109,0.011,0.229,0.011,0.33v0L16.095,69.649z M16.004,69.046c-0.015-0.099-0.029-0.198-0.044-0.297l11.425-11.425   c0.008,0.105,0.02,0.214,0.026,0.315L16.004,69.046z M15.915,68.44c-0.014-0.1-0.028-0.199-0.042-0.298L27.324,56.69   c0.012,0.105,0.023,0.205,0.033,0.308L15.915,68.44z M15.829,67.833c-0.012-0.084-0.024-0.17-0.036-0.254   c-0.002-0.015-0.004-0.03-0.006-0.044l11.452-11.452c0.017,0.101,0.028,0.199,0.042,0.299L15.829,67.833z M15.742,67.225   c-0.014-0.1-0.029-0.199-0.042-0.298l11.428-11.428c0.02,0.095,0.04,0.188,0.057,0.284L15.742,67.225z M15.655,66.618   c-0.014-0.099-0.028-0.199-0.043-0.298l11.385-11.385c0.023,0.091,0.049,0.178,0.07,0.271L15.655,66.618z M15.567,66.011   c-0.015-0.101-0.03-0.196-0.045-0.295l11.322-11.322c0.028,0.085,0.049,0.177,0.075,0.266L15.567,66.011z M15.474,65.41   c-0.015-0.099-0.031-0.197-0.046-0.295l11.226-11.226c0.033,0.081,0.066,0.161,0.096,0.245L15.474,65.41z M15.381,64.809   c-0.016-0.097-0.03-0.199-0.046-0.294l11.1-11.1c0.04,0.075,0.083,0.141,0.12,0.221L15.381,64.809z M15.276,64.219   c-0.018-0.095-0.04-0.188-0.061-0.28l10.963-10.963c0.046,0.063,0.083,0.144,0.126,0.214L15.276,64.219z M15.153,63.648   c-0.023-0.089-0.049-0.178-0.075-0.266l10.769-10.769c0.057,0.052,0.109,0.117,0.163,0.178L15.153,63.648z M14.995,63.111   c-0.027-0.086-0.051-0.174-0.081-0.26l10.566-10.566c0.063,0.053,0.119,0.104,0.184,0.157L14.995,63.111z M14.823,62.589   c-0.03-0.082-0.062-0.165-0.093-0.248l10.375-10.375c0.058,0.051,0.124,0.104,0.184,0.157L14.823,62.589z M14.633,62.084   c-0.032-0.081-0.063-0.164-0.096-0.245l10.201-10.201c0.061,0.056,0.114,0.107,0.177,0.164L14.633,62.084z M14.435,61.589   c-0.033-0.08-0.065-0.16-0.099-0.242l10.042-10.042c0.056,0.053,0.119,0.109,0.177,0.164L14.435,61.589z M14.232,61.097   c-0.033-0.079-0.066-0.161-0.1-0.241l9.884-9.884c0.06,0.056,0.113,0.103,0.177,0.164L14.232,61.097z M14.029,60.605   c-0.032-0.08-0.065-0.162-0.098-0.243l9.725-9.725c0.053,0.047,0.121,0.111,0.177,0.164L14.029,60.605z M13.83,60.111   c-0.032-0.08-0.063-0.164-0.095-0.246l9.538-9.538c0.059,0.044,0.125,0.1,0.188,0.153L13.83,60.111z M13.636,59.61   c-0.031-0.081-0.061-0.167-0.091-0.25l9.299-9.299c0.07,0.032,0.144,0.077,0.217,0.124L13.636,59.61z M13.45,59.102   c-0.029-0.083-0.058-0.169-0.086-0.254l8.902-8.902c0.036-0.001,0.072-0.008,0.107-0.008c0,0,0.001,0,0.002,0   c0.067,0,0.133,0.027,0.199,0.041L13.45,59.102z M13.274,58.583c-0.028-0.084-0.055-0.171-0.083-0.258l8.249-8.249   c0.148-0.043,0.295-0.078,0.441-0.101L13.274,58.583z M13.108,58.055c-0.026-0.087-0.052-0.173-0.078-0.263l7.064-7.064   c0.269-0.176,0.531-0.33,0.786-0.445L13.108,58.055z M12.954,57.515c-0.024-0.089-0.05-0.175-0.074-0.267l2.841-2.841   c0.317-0.144,0.636-0.356,0.979-0.638L12.954,57.515z M12.81,56.964c-0.022-0.09-0.044-0.182-0.066-0.275l2.031-2.031   c0.144-0.012,0.279-0.042,0.414-0.073L12.81,56.964z M12.677,56.403c-0.02-0.091-0.039-0.188-0.059-0.282l1.47-1.47   c0.115,0.009,0.223,0.01,0.33,0.011L12.677,56.403z M12.557,55.829c-0.019-0.094-0.037-0.189-0.055-0.286l0.967-0.967   c0.021,0.004,0.042,0.008,0.064,0.012c0.085,0.014,0.157,0.017,0.238,0.027L12.557,55.829z M12.449,55.242   c-0.017-0.097-0.035-0.19-0.051-0.29l0.484-0.484c0.093,0.019,0.189,0.037,0.286,0.055L12.449,55.242z M12.351,54.646   c-0.015-0.097-0.029-0.198-0.043-0.298l0.009-0.009c0.089,0.022,0.181,0.043,0.275,0.065L12.351,54.646z M8.733,51.363   c-0.122-0.861-0.079-2.733,0.445-4.829c0.163-0.65,0.521-1.455,0.972-2.304C10,45.428,9.917,46.733,9.917,48.167   c0,0.484,0.005,0.951,0.016,1.401C9.386,50.66,8.98,51.15,8.733,51.363z M29.866,58.774c0.061-0.062,0.123-0.124,0.183-0.184   c0.975-0.972,1.896-1.889,1.985-2.927c0.046-0.538-0.347-0.985-0.883-1.048c-0.528-0.063-1.03,0.34-1.11,0.875   c-0.03,0.202-0.363,0.601-0.726,0.99c-0.203-1.757-0.76-4.285-2.297-5.511c-0.536-0.428-0.994-0.858-1.397-1.238   c-1.021-0.961-1.902-1.792-3.246-1.792c-0.001,0-0.002,0-0.003,0c-1.869,0-3.632,0.961-5.716,3.118   c-1.678,1.735-1.829,1.711-2.814,1.557c-0.717-0.112-1.345-0.284-1.773-0.417c-0.096-1.186-0.153-2.512-0.153-4.028   c0-10.209,4.354-13.288,8.564-16.265l0.181-0.127c4.538-3.211,8.238-5.483,14.547-5.483c3.957,0,7.333,0.28,10.047,0.505   c0.475,0.04,0.932,0.077,1.373,0.112c-0.659,1.278-1.403,3.344-1.441,6.203c-0.03,2.277,0.38,4.742,0.741,6.916   c0.386,2.323,0.751,4.516,0.408,5.526c-0.647,1.908-2.546,7.529-1.66,12.746c-1.681,0.839-3.966,1.7-6.885,1.7   C35.08,60,31.772,59.265,29.866,58.774z M91.827,48.987c-0.233,0.262-0.472,0.531-0.691,0.806   c-0.123,0.154-0.215,0.234-0.272,0.275c-0.404-0.156-0.879-0.038-1.156,0.323c-0.104,0.135-0.168,0.289-0.194,0.446   c-0.313,0.081-0.816,0.18-1.618,0.298c-0.396,0.058-1.074-0.144-1.793-0.357c-0.757-0.225-1.614-0.48-2.604-0.604   c-1.789-0.224-3.134-0.221-6.403-0.217l-1.68,0.001c-0.554,0-1.007-0.198-1.427-0.623c-1.655-1.676-1.968-6.095-1.948-7.656   c0.007-0.552-0.435-1.005-0.987-1.012c-0.004,0-0.009,0-0.013,0c-0.546,0-0.992,0.438-1,0.986c-0.007,0.522-0.006,4.3,1.253,7.128   c-0.85,0.047-2.084,0.167-3.144,0.455c-0.642-5.558-1.938-7.45-3.307-9.438c-0.227-0.331-0.458-0.666-0.689-1.025   c-1.265-1.968-3.362-3.635-4.893-4.853c-0.629-0.5-1.172-0.932-1.492-1.251c-0.561-0.561-1.692-3.432-2.604-6.229   c1.139-0.212,2.221-0.397,3.209-0.397c1.552,0,2.088,0.146,3.158,0.438c0.548,0.15,1.213,0.331,2.171,0.539   c2.885,0.627,7.32,1.356,8.713,1.356c0.382,0,0.805-0.055,1.294-0.119c0.542-0.071,1.183-0.146,1.924-0.177   c-0.435,2.092-0.125,4.294-0.061,4.702c0.078,0.493,0.503,0.843,0.986,0.843c0.052,0,0.104-0.004,0.157-0.012   c0.545-0.085,0.918-0.597,0.833-1.143c-0.22-1.406-0.403-5.577,1.566-6.277c0.249-0.089,0.382-0.097,0.402-0.115   c0.153,0.255,0.161,1.167,0.166,1.666c0.008,0.909,0.016,1.767,0.387,2.412c0.273,0.475,0.875,0.633,1.35,0.364   c0.478-0.268,0.646-0.88,0.384-1.361c-0.011-0.02-0.017-0.066-0.025-0.097c2.574,0.929,3.738,2.265,5.441,4.717   c1.65,2.376,1.55,4.28,1.501,5.194c-0.007,0.145-0.013,0.266-0.013,0.36c0,1.079,0.783,2.518,1.559,3.466   c0.658,0.804,0.95,1.502,1.171,2.093c0.118,0.313,0.331,0.693,0.578,1.133c0.262,0.466,0.749,1.333,0.78,1.642   C92.775,47.918,92.181,48.587,91.827,48.987z"/><path d="M86.531,38.844c-0.406,0.25-0.937,1.152-1.344,2.063c-0.938,2.094-2.51,1.896-2.479,2.677s0.833,1.288,2.104,1.26   c1.29-0.028,2.156-2.094,2.531-2.844s1.094-2.813,0.625-3.156S86.938,38.594,86.531,38.844z"/></g><text x="0" y="115" fill="#000000" font-size="5px" font-weight="bold" font-family="'Helvetica Neue', Helvetica, Arial-Unicode, Arial, Sans-serif"></text><text x="0" y="120" fill="#000000" font-size="5px" font-weight="bold" font-family="'Helvetica Neue', Helvetica, Arial-Unicode, Arial, Sans-serif"></text></svg>
